<?xml version="1.0" encoding="UTF-8" standalone="no"?>
<!DOCTYPE svg PUBLIC "-//W3C//DTD SVG 20010904//EN"
              "http://www.w3.org/TR/2001/REC-SVG-20010904/DTD/svg10.dtd">

<svg xmlns="http://www.w3.org/2000/svg"
     width="6.94444in" height="6.94444in"
     viewBox="0 0 500 500">
  <path id="Selection"
        fill="none" stroke="black" stroke-width="1"
        d="M 163.00,256.00
           C 160.56,256.00 157.34,255.79 155.18,257.02
             152.72,258.43 150.27,262.60 148.67,265.00
             148.67,265.00 136.67,283.00 136.67,283.00
             136.67,283.00 78.00,371.00 78.00,371.00
             78.00,371.00 59.33,399.00 59.33,399.00
             56.91,402.55 54.07,406.80 49.06,405.67
             39.73,403.55 49.16,390.75 51.67,387.00
             51.67,387.00 88.33,332.00 88.33,332.00
             88.33,332.00 204.33,158.00 204.33,158.00
             204.33,158.00 234.33,113.00 234.33,113.00
             237.12,108.82 243.72,97.21 248.04,95.60
             254.89,93.05 268.43,105.56 274.00,109.58
             274.00,109.58 343.00,159.71 343.00,159.71
             343.00,159.71 360.98,172.89 360.98,172.89
             363.94,175.28 366.56,177.80 365.67,181.99
             364.84,185.88 361.10,187.86 358.00,189.81
             358.00,189.81 340.00,201.31 340.00,201.31
             340.00,201.31 290.00,233.05 290.00,233.05
             290.00,233.05 261.00,251.00 261.00,251.00
             261.00,251.00 300.00,291.00 300.00,291.00
             300.00,291.00 375.00,366.00 375.00,366.00
             375.00,366.00 403.69,395.00 403.69,395.00
             408.12,400.92 405.18,406.96 399.00,405.67
             394.87,404.81 389.06,398.06 386.00,395.00
             386.00,395.00 359.00,368.00 359.00,368.00
             359.00,368.00 256.00,265.00 256.00,265.00
             256.00,265.00 256.00,374.00 256.00,374.00
             256.00,374.00 256.00,397.00 256.00,397.00
             255.97,401.60 255.47,407.13 249.06,405.67
             244.42,404.61 245.01,399.69 245.00,396.00
             245.00,396.00 245.00,256.00 245.00,256.00
             245.00,256.00 163.00,256.00 163.00,256.00 Z
           M 256.00,127.00
           C 256.00,127.00 256.00,152.00 256.00,152.00
             256.00,152.00 256.00,239.00 256.00,239.00
             256.00,239.00 284.00,222.05 284.00,222.05
             284.00,222.05 323.00,197.31 323.00,197.31
             323.00,197.31 349.00,181.00 349.00,181.00
             349.00,181.00 349.00,179.00 349.00,179.00
             349.00,179.00 326.00,162.71 326.00,162.71
             326.00,162.71 278.00,127.85 278.00,127.85
             278.00,127.85 257.00,113.00 257.00,113.00
             257.00,113.00 256.00,127.00 256.00,127.00 Z
           M 232.67,138.00
           C 232.67,138.00 213.33,167.00 213.33,167.00
             213.33,167.00 180.00,217.00 180.00,217.00
             180.00,217.00 162.00,245.00 162.00,245.00
             162.00,245.00 245.00,245.00 245.00,245.00
             245.00,245.00 245.00,121.00 245.00,121.00
             245.00,121.00 232.67,138.00 232.67,138.00 Z" />
</svg>
